<?xml version="1.0" encoding="UTF-8"?> <!-- Generator: Adobe Illustrator 19.0.0, SVG Export Plug-In . SVG Version: 6.00 Build 0) --> <svg xmlns="http://www.w3.org/2000/svg" xmlns:xlink="http://www.w3.org/1999/xlink" version="1.1" id="Layer_1" x="0px" y="0px" viewBox="0 0 512.002 512.002" style="enable-background:new 0 0 512.002 512.002;" xml:space="preserve"> <g> <g> <g> <rect x="72.034" y="127.934" width="15.737" height="16.009"></rect> <rect x="32.017" y="151.949" width="15.737" height="16.009"></rect> <rect x="32.017" y="199.969" width="15.737" height="16.009"></rect> <rect x="32.017" y="247.999" width="15.737" height="16.008"></rect> <rect x="32.017" y="296.018" width="15.737" height="16.009"></rect> <rect x="32.017" y="344.048" width="15.737" height="16.009"></rect> <rect x="72.034" y="175.964" width="15.737" height="16.009"></rect> <rect x="72.034" y="223.984" width="15.737" height="16.009"></rect> <rect x="72.034" y="272.014" width="15.737" height="16.009"></rect> <rect x="72.034" y="320.033" width="15.737" height="16.009"></rect> <rect x="72.034" y="368.063" width="15.737" height="16.009"></rect> <path d="M344.182,48.027v35.674l-16.145,10.763l-16.144-10.763V63.899h-15.737v19.802l-16.144,10.763l-16.144-10.763V63.899 H248.13v19.802l-16.142,10.763l-16.144-10.763V63.899h-15.737v19.802l-16.144,10.763l-16.144-10.763V63.899H152.08v19.802 l-16.144,10.763l-16.144-10.763V48.027H0v415.948h119.792v-27.67l16.144-10.762l16.144,10.762v11.798h15.737v-11.798 l16.144-10.762l16.144,10.762v11.798h15.737v-11.798l16.144-10.762l16.144,10.762v11.798h15.737v-11.798l16.144-10.762 l16.144,10.762v11.798h15.737v-11.798l16.144-10.762l16.145,10.762v27.67h167.818V48.027H344.182z M104.055,448.238H15.737 V63.764h88.317V448.238z M152.08,417.392l-16.144-10.762l-16.144,10.762V102.614l16.144,10.763l16.144-10.763V417.392z M200.106,417.392l-16.144-10.762l-16.144,10.762V102.615l16.144,10.763l16.144-10.763V417.392z M248.132,417.392h-0.001 l-16.143-10.762l-16.144,10.762V102.615l16.144,10.763l16.144-10.763V417.392z M296.157,417.392l-16.144-10.762l-16.144,10.762 V102.615l16.144,10.763l16.144-10.763V417.392z M344.182,417.392L344.182,417.392l-16.145-10.762l-16.144,10.762V102.615 l16.144,10.763l16.145-10.763V417.392z M496.263,448.237H359.92V63.764h136.343v32.288H376.199v319.898h120.063V448.237z M391.937,151.811h32.288v16.28h-32.288V151.811z M424.224,247.86v16.281h-32.288V247.86H424.224z M424.224,343.912v16.28 h-32.288v-16.28H424.224z M496.263,400.213H391.937V375.93h48.025v-16.008h56.302V400.213z M496.263,344.183h-56.302v-16.009 h-48.025v-16.281h104.326V344.183z M496.263,296.158H391.937v-16.28h48.025v-16.009h56.302V296.158z M496.263,248.133h-56.302 v-16.009h-48.025v-16.28h104.326V248.133z M496.263,200.107H391.937v-16.281h48.025v-16.009h56.302V200.107z M496.263,152.081 h-56.302v-16.008h-48.025V111.79h104.326V152.081z"></path> </g> </g> </g> <g> </g> <g> </g> <g> </g> <g> </g> <g> </g> <g> </g> <g> </g> <g> </g> <g> </g> <g> </g> <g> </g> <g> </g> <g> </g> <g> </g> <g> </g> </svg> 