<?xml version="1.0" encoding="UTF-8"?> <!-- Generator: Adobe Illustrator 19.0.0, SVG Export Plug-In . SVG Version: 6.00 Build 0) --> <svg xmlns="http://www.w3.org/2000/svg" xmlns:xlink="http://www.w3.org/1999/xlink" version="1.1" id="Layer_1" x="0px" y="0px" viewBox="0 0 512 512" style="enable-background:new 0 0 512 512;" xml:space="preserve"> <g> <g> <path d="M155.837,402.652l-46.22-46.218c-3.192-3.191-8.364-3.191-11.555,0c-3.191,3.191-3.191,8.364,0,11.554l46.219,46.218 c1.596,1.595,3.688,2.393,5.778,2.393s4.182-0.797,5.778-2.393C159.028,411.016,159.028,405.842,155.837,402.652z"></path> </g> </g> <g> <g> <path d="M511.729,46.685c0-2.167-0.861-4.245-2.392-5.777L470.821,2.393C469.289,0.861,467.21,0,465.043,0 c-2.167,0-4.244,0.861-5.778,2.393l-9.629,9.629l-5.777-5.777c-3.192-3.191-8.364-3.191-11.555,0s-3.191,8.364,0,11.554 l5.778,5.778l-11.554,11.554l-5.777-5.777c-3.192-3.191-8.364-3.191-11.555,0c-3.191,3.191-3.191,8.364,0,11.554l5.777,5.777 l-9.629,9.629c-0.897,0.897-1.572,1.99-1.974,3.194l-7.056,21.165L231.58,236.52c-27.442-17.821-60.25-26.196-93.152-23.647 c-35.553,2.753-69.037,18.174-94.286,43.422C15.851,284.587,0.271,322.203,0.271,362.212c0,40.009,15.581,77.625,43.871,105.916 C72.434,496.419,110.049,512,150.059,512s77.625-15.581,105.917-43.872c25.35-25.35,40.781-58.973,43.452-94.677 c2.473-33.046-6.063-65.954-24.107-93.419l155.736-164.62l21.165-7.055c1.203-0.401,2.295-1.077,3.194-1.974l9.629-9.629 l5.777,5.777c1.596,1.595,3.688,2.393,5.778,2.393s4.182-0.797,5.778-2.393c3.191-3.191,3.191-8.364,0-11.554l-5.777-5.777 l11.554-11.554l5.777,5.777c1.596,1.595,3.688,2.393,5.778,2.393c2.091,0,4.182-0.797,5.778-2.393 c3.191-3.191,3.191-8.364,0-11.554l-5.777-5.777l9.629-9.629C510.868,50.93,511.729,48.853,511.729,46.685z M55.697,456.573 c-1.936-1.936-3.796-3.926-5.597-5.958l34.483-34.483l11.555,11.555L61.653,462.17C59.623,460.369,57.633,458.509,55.697,456.573z M213.048,322.078c-3.101,3.278-2.958,8.449,0.32,11.551c1.58,1.495,3.598,2.235,5.614,2.235c2.167,0,4.33-0.857,5.936-2.556 l38.829-41.044c32.435,52.367,24.966,120.016-19.328,164.31c-25.205,25.205-58.716,39.085-94.361,39.085 c-27.332,0-53.404-8.17-75.444-23.34l11.812-11.812c18.895,12.227,41.02,18.759,63.642,18.759c2.758,0,5.527-0.097,8.296-0.292 c28.129-1.984,54.587-14.043,74.502-33.957c14.456-14.456,24.899-32.497,30.199-52.171c5.139-19.068,5.384-39.294,0.712-58.492 c-1.066-4.384-5.485-7.073-9.871-6.007c-4.384,1.067-7.073,5.486-6.007,9.871c8.413,34.576-1.526,70.18-26.59,95.245 c-32.668,32.668-84.011,38.508-123.032,15.191l15.192-15.191c1.532-1.532,2.392-3.61,2.392-5.777s-0.861-4.245-2.392-5.777 l-23.11-23.109c-3.192-3.191-8.364-3.191-11.555,0l-15.191,15.191c-23.317-39.02-17.478-90.364,15.192-123.033 c24.811-24.811,60.109-34.824,94.414-26.78c4.394,1.029,8.789-1.696,9.82-6.09c1.029-4.393-1.697-8.789-6.09-9.82 c-39.853-9.344-80.862,2.296-109.699,31.136c-19.913,19.914-31.973,46.372-33.957,74.502c-1.795,25.467,4.752,50.735,18.47,71.935 l-11.814,11.814c-15.169-22.04-23.34-48.112-23.34-75.444c0-35.645,13.881-69.156,39.087-94.362 c44.019-44.02,111.373-51.657,163.632-19.74l-40.909,38.701c-3.278,3.101-3.422,8.272-0.32,11.551 c3.099,3.277,8.27,3.421,11.551,0.32l213.61-202.086l11.87,11.87L213.048,322.078z M445.223,93.466l-16.488,5.496l-15.968-15.968 l5.497-16.489l46.779-46.78l26.961,26.961L445.223,93.466z"></path> </g> </g> <g> </g> <g> </g> <g> </g> <g> </g> <g> </g> <g> </g> <g> </g> <g> </g> <g> </g> <g> </g> <g> </g> <g> </g> <g> </g> <g> </g> <g> </g> </svg> 