<?xml version="1.0" encoding="UTF-8"?> <!-- Generator: Adobe Illustrator 19.0.0, SVG Export Plug-In . SVG Version: 6.00 Build 0) --> <svg xmlns="http://www.w3.org/2000/svg" xmlns:xlink="http://www.w3.org/1999/xlink" version="1.1" id="Layer_1" x="0px" y="0px" viewBox="0 0 512.002 512.002" style="enable-background:new 0 0 512.002 512.002;" xml:space="preserve"> <g> <g> <path d="M393.664,243.086h-5.466l53.722-138.071c5.61-1.193,10.531-5.116,12.768-10.859l15.025-38.612 c1.694-4.353,1.59-9.206-0.29-13.482c-1.879-4.276-5.38-7.632-9.733-9.326l-14.85-5.782c-9.065-3.529-19.268,0.959-22.797,10.021 l-15.025,38.6c-1.694,4.353-1.59,9.2,0.29,13.474c0.49,1.115,1.096,2.164,1.794,3.14l-10.756,27.632h-57.819V86.641 c4.712-3.16,8.218-8.533,8.218-14.633v-41.42c0-9.725-8.287-17.595-18.012-17.595h-15.935c-9.725,0-17.707,7.87-17.707,17.595 v41.42c0,6.228,3.339,11.688,8.218,14.819v32.995h-58.124l-10.756-27.633c3.328-4.671,4.32-10.87,2.084-16.612l-15.024-38.6 c-1.694-4.353-5.048-7.852-9.322-9.733c-4.274-1.881-9.123-1.983-13.475-0.29l-14.85,5.781 c-9.064,3.528-13.551,13.734-10.023,22.797l15.024,38.6c1.694,4.353,5.048,7.853,9.322,9.733c1.116,0.491,2.272,0.909,3.447,1.156 l53.721,138.066h-13.669c-12.869,0-25.477,1.573-37.584,4.685L88.955,60.154c2.402-5.209,2.225-11.495-1.04-16.724L65.977,8.288 c-2.473-3.961-6.419-6.781-10.969-7.834C50.456-0.6,45.675,0.199,41.714,2.671l-13.517,8.441 c-8.249,5.151-10.762,16.013-5.61,24.263L44.525,70.51c2.473,3.961,6.419,6.777,10.969,7.83c1.186,0.275,2.384,0.405,3.583,0.431 l113.624,181.987c-22.094,11.862-41.181,29.293-55.242,51.224L34.149,441.895c-6.838-1.341-14.112,1.465-18.148,7.664 c-5.307,8.149-3.004,19.058,5.147,24.365l44.745,29.138c0.001,0.001,0.003,0.002,0.006,0.005c0.002,0.001,0.006,0.004,0.008,0.005 l9.328,6.074c2.967,1.932,6.298,2.856,9.593,2.856c5.755,0,11.397-2.819,14.772-8.002c4.061-6.235,3.653-14.074-0.405-19.795 l53.772-82.573c14.646-22.487,42.27-33.211,68.113-26.816l48.773,39.929c30.326,24.885,68.595,38.477,107.817,38.477 c0.156,0,0.318,0,0.474,0l15.815,0.05c57.84-0.164,104.895-47.255,104.895-105.094 C498.856,290.176,451.666,243.086,393.664,243.086z M340.526,155.04h44.111l-34.231,88.046h-9.88V155.04z M305.308,155.04v88.046 h-10.185l-34.231-88.046H305.308z M393.862,418.081l-15.815-0.076c-0.126-0.001-0.25-0.001-0.377-0.001 c-31.092,0-61.434-10.757-85.475-30.485l-51.649-42.336c-1.783-1.463-3.836-2.537-6.042-3.208 c-20.552-6.256-42.086-5.669-62.272,1.68c-20.186,7.346-37.053,20.752-48.776,38.753l-53.095,81.536l-6.006-3.909l82.748-128.992 c21.196-33.054,57.293-52.737,96.559-52.737h39.301c0.041,0,0.081,0.005,0.122,0.005c0.033,0,0.067-0.005,0.1-0.005h37.874 c0.61,0,1.23,0.1,1.858,0.1s1.248-0.1,1.858-0.1h37.569c0.033,0,0.067,0.005,0.1,0.005c0.041,0,0.081-0.005,0.122-0.005h31.099 c38.583,0,69.973,31.34,69.973,69.922C463.638,386.702,432.337,417.971,393.862,418.081z"></path> </g> </g> <g> </g> <g> </g> <g> </g> <g> </g> <g> </g> <g> </g> <g> </g> <g> </g> <g> </g> <g> </g> <g> </g> <g> </g> <g> </g> <g> </g> <g> </g> </svg> 