<?xml version="1.0" encoding="UTF-8"?> <!-- Generator: Adobe Illustrator 19.0.0, SVG Export Plug-In . SVG Version: 6.00 Build 0) --> <svg xmlns="http://www.w3.org/2000/svg" xmlns:xlink="http://www.w3.org/1999/xlink" version="1.1" id="Layer_1" x="0px" y="0px" viewBox="0 0 511.996 511.996" style="enable-background:new 0 0 511.996 511.996;" xml:space="preserve"> <g> <g> <g> <path d="M185.752,282.874c-8.331-8.331-21.839-8.331-30.17,0l-42.667,42.667c-8.331,8.331-8.331,21.839,0,30.17 c8.331,8.331,21.839,8.331,30.17,0l42.667-42.667C194.083,304.713,194.083,291.205,185.752,282.874z"></path> <path d="M198.248,325.541l-42.667,42.667c-8.331,8.331-8.331,21.839,0,30.17s21.839,8.331,30.17,0l42.667-42.667 c8.331-8.331,8.331-21.839,0-30.17C220.087,317.21,206.58,317.21,198.248,325.541z"></path> <path d="M494.212,31.433l-12.949-12.949c-23.711-23.711-62.149-23.711-85.882-0.01l-29.408,29.408 c-10.704,10.753-13.276,27.46-6.007,40.354l-93.919,93.919c-56.677-29.118-165.278,9.382-220.695,64.799 c-60.47,60.47-60.47,158.521,0,218.991c60.47,60.47,158.521,60.47,218.991,0c54.81-54.81,93.054-161.622,65.715-218.812 l94.478-94.478c12.714,7.1,29.143,5.232,39.971-5.646l29.699-29.678C517.925,93.613,517.925,55.146,494.212,31.433z M234.174,435.774c-43.807,43.807-114.844,43.807-158.651,0c-43.807-43.807-43.807-114.844,0-158.651 c38.966-38.966,115.14-68.648,157.052-61.496l-11.027,11.027c-9.61,9.57-12.064,23.308-7.811,35.091 c1.929,5.36,5.246,10.315,9.911,14.29c2.277,1.94,4.459,3.97,6.541,6.082c2.078,2.116,4.057,4.319,5.926,6.599 c0.985,1.193,2.04,2.292,3.142,3.315c12.963,12.137,33.591,12.322,46.635-0.722l10.139-10.139 C301.672,323.554,272.393,397.555,234.174,435.774z M464.043,87.156l-24.148,24.131l0,0c-12.771-7.084-29.113-5.216-39.916,5.586 L262.594,254.258c-0.474-0.501-0.97-0.978-1.451-1.472c-0.883-0.909-1.759-1.825-2.667-2.712l38.831-38.831l-0.004-0.004 l98.521-98.521c10.818-10.866,12.658-27.232,5.589-39.936l24.128-24.128c7.062-7.052,18.501-7.052,25.553,0l12.949,12.949 C471.093,68.653,471.093,80.106,464.043,87.156z"></path> </g> </g> </g> <g> </g> <g> </g> <g> </g> <g> </g> <g> </g> <g> </g> <g> </g> <g> </g> <g> </g> <g> </g> <g> </g> <g> </g> <g> </g> <g> </g> <g> </g> </svg> 