<?xml version="1.0" encoding="UTF-8"?> <!-- Generator: Adobe Illustrator 19.0.0, SVG Export Plug-In . SVG Version: 6.00 Build 0) --> <svg xmlns="http://www.w3.org/2000/svg" xmlns:xlink="http://www.w3.org/1999/xlink" version="1.1" id="Layer_1" x="0px" y="0px" viewBox="0 0 512 512" style="enable-background:new 0 0 512 512;" xml:space="preserve"> <g> <g> <path d="M509.606,71.72L440.279,2.393c-3.191-3.191-8.364-3.191-11.554,0L278.519,152.602c-2.514,2.514-3.038,6.257-1.59,9.293 L2.393,436.43c-3.191,3.191-3.191,8.364,0,11.554l61.623,61.623c1.595,1.595,3.686,2.393,5.777,2.393 c2.091,0,4.182-0.797,5.777-2.393l274.535-274.535c1.11,0.529,2.312,0.803,3.515,0.803c2.09,0,4.182-0.797,5.777-2.393 L509.606,83.275C512.798,80.085,512.798,74.911,509.606,71.72z M69.793,492.277l-50.069-50.069l11.555-11.555l50.069,50.069 L69.793,492.277z M92.903,469.167l-50.069-50.069l245.313-245.313l50.069,50.069L92.903,469.167z M376.732,193.043L359.4,175.711 c-3.191-3.191-8.364-3.191-11.554,0c-3.191,3.191-3.191,8.364,0,11.554l17.332,17.332l-11.555,11.555l-57.772-57.772 l11.555-11.555l17.332,17.332c1.595,1.595,3.686,2.393,5.777,2.393c2.09,0,4.182-0.797,5.777-2.393 c3.191-3.191,3.191-8.364,0-11.554l-17.332-17.332L434.503,19.725l57.772,57.772L376.732,193.043z"></path> </g> </g> <g> <g> <path d="M463.388,71.72c-3.191-3.191-8.364-3.191-11.554,0l-32.737,32.737l-11.555-11.555l32.738-32.737 c3.191-3.191,3.191-8.364,0-11.554c-3.191-3.191-8.364-3.191-11.554,0l-69.327,69.327c-3.191,3.191-3.191,8.364,0,11.554 l23.109,23.109c1.595,1.595,3.686,2.393,5.777,2.393s4.182-0.797,5.777-2.393l69.327-69.327 C466.579,80.083,466.579,74.91,463.388,71.72z M388.285,135.27l-11.555-11.555l19.258-19.258l11.555,11.555L388.285,135.27z"></path> </g> </g> <g> <g> <circle cx="246.958" cy="265.043" r="8.17"></circle> </g> </g> <g> <g> <circle cx="216.151" cy="295.85" r="8.17"></circle> </g> </g> <g> <g> <circle cx="185.333" cy="326.668" r="8.17"></circle> </g> </g> <g> <g> <circle cx="154.526" cy="357.475" r="8.17"></circle> </g> </g> <g> <g> <circle cx="123.719" cy="388.282" r="8.17"></circle> </g> </g> <g> <g> <circle cx="92.9" cy="419.1" r="8.17"></circle> </g> </g> <g> </g> <g> </g> <g> </g> <g> </g> <g> </g> <g> </g> <g> </g> <g> </g> <g> </g> <g> </g> <g> </g> <g> </g> <g> </g> <g> </g> <g> </g> </svg> 